<svg width="40" height="40" viewBox="0 0 40 40" fill="none" xmlns="http://www.w3.org/2000/svg">
<path d="M10.2362 20.2456C10.2362 25.7792 14.7006 30.2425 20.2354 30.2425C25.7701 30.2425 30.2345 25.7792 30.2345 20.2456C30.2345 14.7121 25.7701 10.2488 20.2354 10.2488C14.7006 10.2488 10.2362 14.7121 10.2362 20.2456ZM26.7361 20.2456C26.7361 23.8216 23.8208 26.7449 20.2354 26.7449C16.6499 26.7449 13.7346 23.8303 13.7346 20.2456C13.7346 16.661 16.6499 13.7464 20.2354 13.7464C23.8208 13.7464 26.7361 16.6697 26.7361 20.2456ZM9.82723 7.50811C11.1239 7.50811 12.1595 8.55217 12.1595 9.83985C12.1595 11.1362 11.1152 12.1716 9.82723 12.1716C8.53927 12.1716 7.49497 11.1275 7.49497 9.83985C7.49497 8.55217 8.53927 7.50811 9.82723 7.50811ZM12.1943 0.887032C9.07012 1.03494 6.30274 1.74838 4.0227 4.03661C1.74266 6.31615 1.02906 9.0829 0.872415 12.2064C0.689664 15.4256 0.689664 25.0744 0.872415 28.2936C1.02036 31.4084 1.73396 34.1752 4.014 36.4634C6.29404 38.7516 9.06141 39.4564 12.1856 39.613C15.4055 39.7957 25.0565 39.7957 28.2764 39.613C31.4006 39.4651 34.168 38.7516 36.448 36.4634C38.728 34.1752 39.4416 31.4171 39.5983 28.2936C39.781 25.0744 39.781 15.4256 39.5983 12.2064C39.4503 9.0829 38.7367 6.31615 36.448 4.03661C34.168 1.75708 31.4006 1.04364 28.2764 0.887032C25.0565 0.704323 15.4142 0.704323 12.1943 0.887032ZM31.7313 5.04587C33.437 5.72451 34.751 7.03828 35.4385 8.75229C36.4567 11.3189 36.2217 17.4093 36.2217 20.2456C36.2217 23.082 36.448 29.1811 35.4385 31.739C34.7597 33.4443 33.4457 34.7581 31.7313 35.4454C29.1641 36.4634 23.0723 36.2285 20.2354 36.2285C17.3984 36.2285 11.2979 36.4547 8.73942 35.4454C7.03374 34.7668 5.71968 33.453 5.03218 31.739C4.014 29.1724 4.24896 23.082 4.24896 20.2456C4.24896 17.4093 4.0227 11.3102 5.03218 8.75229C5.71097 7.04699 7.02504 5.73321 8.73942 5.04587C11.3066 4.02792 17.3984 4.26283 20.2354 4.26283C23.0723 4.26283 29.1728 4.02792 31.7313 5.04587Z" fill="black"/>
</svg>
