<svg width="40" height="40" viewBox="0 0 40 40" fill="none" xmlns="http://www.w3.org/2000/svg">
<path d="M39.7354 20.3226C39.7354 9.51181 31.0061 0.75 20.2354 0.75C9.46465 0.75 0.735352 9.51181 0.735352 20.3226C0.735352 29.4973 7.03477 37.204 15.5279 39.3218V26.3015H11.5061V20.3226H15.5279V17.7461C15.5279 11.0868 18.5291 7.99799 25.0494 7.99799C26.2834 7.99799 28.4162 8.24265 29.2922 8.48731V13.9004C28.8352 13.8545 28.0354 13.8239 27.0375 13.8239C23.8383 13.8239 22.6043 15.0395 22.6043 18.1972V20.3226H28.9723L27.8754 26.3015H22.5967V39.75C32.2553 38.5802 39.7354 30.3307 39.7354 20.3226Z" fill="black"/>
</svg>
