<svg width="18" height="20" viewBox="0 0 18 20" fill="none" xmlns="http://www.w3.org/2000/svg">
<path d="M10.0844 1.37115C9.89375 0.910208 10.0375 0.343802 10.4031 0.105521C10.7687 -0.132761 11.225 0.0469268 11.4156 0.503958L14.325 7.50005H17C17.5531 7.50005 18 8.05865 18 8.75005C18 9.44146 17.5531 10.0001 17 10.0001L15.3781 18.1055C15.1562 19.2188 14.3563 20.0001 13.4375 20.0001H4.5625C3.64375 20.0001 2.84375 19.2188 2.62187 18.1055L1 10.0001C0.446875 10.0001 0 9.44146 0 8.75005C0 8.05865 0.446875 7.50005 1 7.50005H3.675L6.58438 0.503958C6.775 0.0469268 7.22813 -0.132761 7.59688 0.105521C7.96562 0.343802 8.10625 0.910208 7.91562 1.37115L5.36563 7.50005H12.6344L10.0844 1.37115ZM12 11.8751V15.6251C12 15.9688 12.225 16.2501 12.5 16.2501C12.775 16.2501 13 15.9688 13 15.6251V11.8751C13 11.5313 12.775 11.2501 12.5 11.2501C12.225 11.2501 12 11.5313 12 11.8751ZM9 11.2501C8.725 11.2501 8.5 11.5313 8.5 11.8751V15.6251C8.5 15.9688 8.725 16.2501 9 16.2501C9.275 16.2501 9.5 15.9688 9.5 15.6251V11.8751C9.5 11.5313 9.275 11.2501 9 11.2501ZM5 11.8751V15.6251C5 15.9688 5.225 16.2501 5.5 16.2501C5.775 16.2501 6 15.9688 6 15.6251V11.8751C6 11.5313 5.775 11.2501 5.5 11.2501C5.225 11.2501 5 11.5313 5 11.8751Z" fill="#A1A1A1"/>
</svg>
